<?xml version="1.0" standalone="no"?>
<!DOCTYPE svg PUBLIC "-//W3C//DTD SVG 20010904//EN"
 "http://www.w3.org/TR/2001/REC-SVG-20010904/DTD/svg10.dtd">
<svg version="1.0" xmlns="http://www.w3.org/2000/svg"
 width="612.000000pt" height="408.000000pt" viewBox="0 0 612.000000 408.000000"
 preserveAspectRatio="xMidYMid meet">

<g transform="translate(0.000000,408.000000) scale(0.100000,-0.100000)"
fill="#000000" stroke="none">
<path d="M2136 3048 c5 -7 0 -9 -14 -6 -27 7 -18 -19 10 -28 19 -6 19 -6 1
-18 -24 -17 -83 -28 -83 -16 0 6 5 10 11 10 5 0 7 5 3 11 -5 8 -9 8 -14 -1 -5
-7 -13 -9 -21 -5 -9 6 -11 3 -5 -10 5 -14 4 -16 -7 -6 -12 9 -16 5 -21 -20 -3
-17 -9 -432 -12 -922 -5 -692 -4 -902 6 -937 7 -27 27 -59 50 -82 l38 -38 365
0 365 0 12 30 c19 45 -4 73 -73 89 -88 19 -117 65 -117 184 0 138 31 191 120
203 45 6 54 11 67 39 14 30 14 33 -16 82 -47 77 -40 123 31 205 89 103 156
122 241 68 40 -25 50 -28 77 -19 20 8 32 20 36 37 18 81 26 101 50 123 23 22
35 24 139 27 157 5 191 -16 210 -126 6 -38 12 -46 41 -58 33 -14 36 -13 80 17
42 29 51 31 101 26 l55 -6 -4 235 -3 235 -236 234 c-163 161 -244 235 -259
235 -13 0 -19 4 -14 12 4 6 0 16 -8 22 -8 6 -16 15 -16 19 -2 11 -32 40 -32
30 0 -4 -5 0 -11 10 -5 9 -15 17 -21 17 -6 0 -5 -7 3 -17 13 -15 11 -16 -10
-10 -17 4 -28 1 -37 -11 -16 -21 4 -52 62 -96 24 -19 41 -35 39 -37 -2 -3 86
-94 196 -204 109 -110 199 -208 199 -217 0 -10 -9 -22 -19 -28 -28 -15 -486
-12 -531 3 -56 19 -60 36 -60 294 0 151 -4 234 -10 238 -8 5 -7 11 1 21 6 7 8
22 5 31 -4 10 -4 14 0 11 3 -4 13 0 21 8 8 8 19 12 24 8 5 -3 8 0 7 8 -2 8 5
12 17 10 16 -2 17 -1 6 7 -12 8 -13 12 -2 25 11 13 17 14 30 4 14 -12 14 -11
0 11 -9 14 -22 27 -30 30 -12 4 -12 2 0 -12 16 -20 1 -23 -17 -5 -10 10 -15
10 -21 -1 -7 -10 -20 -12 -49 -7 -26 4 -42 2 -44 -5 -4 -11 -50 -13 -236 -10
-55 2 -80 6 -76 13 4 7 0 7 -12 1 -11 -5 -68 -11 -128 -12 -82 -2 -111 0 -117
11 -5 7 -9 8 -9 2 0 -15 -211 -19 -220 -4 -4 6 -26 14 -48 17 -23 3 -39 9 -37
13 3 4 -2 11 -11 14 -10 4 -13 2 -8 -6z"/>
<path d="M2606 3021 c-4 -5 1 -8 9 -7 21 3 31 16 12 16 -9 0 -18 -4 -21 -9z"/>
</g>
</svg>
