<?xml version="1.0" encoding="UTF-8"?>
<svg version="1.1" xmlns="http://www.w3.org/2000/svg" width="512" height="512">
<path d="M0 0 C2.1198433 0.0056486 4.23967858 0.00846379 6.35952759 0.0110817 C26.90876038 0.04796487 47.20245193 0.45946186 67.58584595 3.31805801 C68.90952917 3.49711854 70.23326122 3.67581845 71.55703735 3.85419083 C122.10618129 10.7519002 161.99715664 22.87437544 199.58584595 58.31805801 C200.36959595 59.04766739 201.15334595 59.77727676 201.96084595 60.52899551 C246.20161285 103.03173229 256.87271381 167.97321338 258.693573 226.79831314 C258.74930531 230.49916141 258.77664528 234.19884115 258.78897095 237.90008926 C258.79179832 238.57637564 258.7946257 239.25266201 258.79753876 239.94944191 C258.81241841 243.54603185 258.82171203 247.14258302 258.82608032 250.73920059 C258.83041279 253.63288723 258.84411448 256.52626689 258.86709595 259.41986465 C259.07109196 285.67523071 257.56872945 311.62284962 253.27334595 337.56805801 C253.06387329 338.86541885 252.85440063 340.16277969 252.63858032 341.4994545 C245.28859483 386.25892924 231.90547881 420.10300068 200.58584595 453.31805801 C199.85623657 454.10180801 199.1266272 454.88555801 198.37490845 455.69305801 C155.57595956 500.24214979 90.27638402 510.59645208 31.10108948 512.42578506 C27.52674671 512.4810209 23.95355962 512.5083338 20.3788147 512.52118301 C19.06685623 512.52819733 17.75489777 512.53521164 16.40318298 512.54243851 C12.19323232 512.56183151 7.98333677 512.56687235 3.77334595 512.56805801 C3.05619415 512.56849987 2.33904236 512.56894173 1.60015869 512.56939697 C-19.88157172 512.5763392 -41.09596572 512.29262146 -62.41415405 509.31805801 C-63.70869507 509.14645157 -65.00323608 508.97484512 -66.33700562 508.79803848 C-123.55513301 501.15002596 -173.89688934 484.10638108 -210.45516968 436.68744278 C-245.09649875 390.67863511 -253.41426233 330.59176764 -253.61727905 274.11102676 C-253.62780052 272.14308907 -253.62780052 272.14308907 -253.63853455 270.13539505 C-253.65792755 265.92544439 -253.66296839 261.71554884 -253.66415405 257.50555801 C-253.66459591 256.78840622 -253.66503777 256.07125443 -253.66549301 255.33237076 C-253.67243459 233.85265288 -253.3997857 212.63327349 -250.41415405 191.31805801 C-250.23502298 189.98901301 -250.05632561 188.65990949 -249.87802124 187.33075333 C-245.81401581 157.40883305 -240.95374301 127.08707284 -226.41415405 100.31805801 C-225.59817749 98.77891739 -225.59817749 98.77891739 -224.76571655 97.20868301 C-217.29031399 83.71649302 -207.4622158 71.76033947 -196.76327515 60.71405411 C-195.54666068 59.45516856 -194.34836607 58.17864047 -193.1524353 56.90008926 C-170.24546708 32.97691543 -140.58720361 18.16238506 -108.53915405 11.25555801 C-107.77734833 11.08852371 -107.0155426 10.92148941 -106.23065186 10.74939346 C-94.6253594 8.21783618 -82.98357064 6.13098144 -71.22665405 4.44305801 C-70.55853699 4.34564316 -69.89041992 4.2482283 -69.20205688 4.14786148 C-46.21087322 0.84801317 -23.20467134 -0.06283861 0 0 Z " fill="#FEE4E4" transform="translate(253.41415405273438,-0.3180580139160156)"/>
<path d="M0 0 C3.41506193 0.00020655 6.82932299 -0.02757196 10.24419308 -0.06154442 C13.584436 -0.08930335 16.92453635 -0.08796146 20.26489258 -0.09033203 C21.46613266 -0.10470306 22.66737274 -0.1190741 23.90501404 -0.13388062 C43.53213428 -0.02885611 58.5469161 9.21758456 73.11254883 21.37060547 C73.66587891 21.82628906 74.21920898 22.28197266 74.78930664 22.75146484 C91.22443003 36.28627234 107.56152566 50.90862176 121.11254883 67.37060547 C121.76868164 68.14919922 122.42481445 68.92779297 123.10083008 69.72998047 C125.4754361 72.5811948 127.80396116 75.46597619 130.11254883 78.37060547 C130.59981445 78.98000977 131.08708008 79.58941406 131.58911133 80.21728516 C142.02292352 93.35785892 150.11537198 106.26086001 150.72192383 123.46435547 C150.7590448 124.39953003 150.79616577 125.33470459 150.83441162 126.29821777 C151.38911255 142.14708394 151.35512494 158.01408427 151.36254883 173.87060547 C151.3638744 175.16727835 151.3638744 175.16727835 151.36522675 176.49014664 C151.38624829 199.71616145 151.11197033 222.86737607 149.73754883 246.05810547 C149.67442505 247.12625488 149.61130127 248.1944043 149.54626465 249.29492188 C149.13804574 255.99274544 148.66092525 262.68282356 148.11254883 269.37060547 C148.03633301 270.3003418 147.96011719 271.23007812 147.8815918 272.18798828 C147.65062417 274.92070997 147.40475984 277.65157517 147.15161133 280.38232422 C147.046306 281.5896949 147.046306 281.5896949 146.93887329 282.82145691 C145.41550909 298.29522452 137.11755017 312.6072226 125.42114258 322.69091797 C93.97994757 347.53233149 40.4252308 340.6019374 2.48754883 340.62060547 C1.662822 340.62148918 0.83809517 340.62237289 -0.01162338 340.62328339 C-89.85624128 340.70854706 -89.85624128 340.70854706 -111.88745117 323.37060547 C-112.72663086 322.72736328 -113.56581055 322.08412109 -114.43041992 321.42138672 C-120.9675402 315.96512575 -125.38067746 308.98194721 -129.26245117 301.49560547 C-129.59607666 300.87266602 -129.92970215 300.24972656 -130.2734375 299.60791016 C-146.24498276 267.3774878 -138.13001627 212.2632012 -138.18261719 177.25195312 C-138.19140074 172.04056843 -138.21212911 166.82945699 -138.24414062 161.61816406 C-138.41008067 133.94219527 -138.14214597 106.41722231 -136.05541992 78.80810547 C-135.93199943 77.13776749 -135.93199943 77.13776749 -135.80608559 75.4336853 C-133.68764021 47.51212109 -133.68764021 47.51212109 -127.51245117 36.43310547 C-126.9478418 35.39283203 -126.38323242 34.35255859 -125.80151367 33.28076172 C-123.77447935 30.19884219 -121.55982752 27.90426305 -118.88745117 25.37060547 C-118.14366211 24.56880859 -117.39987305 23.76701172 -116.63354492 22.94091797 C-103.89240965 9.44523153 -90.53043244 5.3553813 -72.51245117 3.80810547 C-71.31362305 3.6953125 -70.11479492 3.58251953 -68.87963867 3.46630859 C-65.41208775 3.1496292 -61.9441264 2.85710081 -58.47329712 2.57958984 C-56.62512049 2.43022285 -54.77731613 2.27622045 -52.92977905 2.11914062 C-35.28322367 0.63091947 -17.70211259 -0.00567731 0 0 Z " fill="#F24849" transform="translate(249.887451171875,85.62939453125)"/>
<path d="M0 0 C6.31070166 2.84959978 10.09710999 7.79432924 13.390625 13.72265625 C15.89449695 21.7906881 14.12741759 30.06765488 12.765625 38.22265625 C12.59603271 39.31747314 12.42644043 40.41229004 12.25170898 41.5402832 C11.42451043 46.70246864 10.49342794 51.70518246 8.97265625 56.7109375 C6.3760348 64.4888741 6.3760348 64.4888741 7.29443359 72.36669922 C9.64784834 76.38656966 12.70044258 79.65221694 16.02783203 82.88427734 C18.07043211 84.89335921 19.86752003 87.087601 21.703125 89.28515625 C22.92744789 90.68151515 24.20723888 92.02973726 25.515625 93.34765625 C26.02859131 93.95697998 26.54155762 94.56630371 27.07006836 95.1940918 C30.01857661 98.32376085 32.10211069 100.21401617 36.48266602 100.62817383 C39.93935895 100.36000666 43.2872899 99.87814371 46.703125 99.28515625 C73.59029018 95.17549931 73.59029018 95.17549931 82.515625 101.34765625 C86.74561585 105.27680724 90.15269149 109.45946957 90.88671875 115.30078125 C91.03572567 122.69853637 90.58768375 127.75912154 85.515625 133.34765625 C80.92876823 137.92278193 76.81697042 140.63207906 70.265625 140.66015625 C69.37359375 140.67691406 68.4815625 140.69367188 67.5625 140.7109375 C59.75387293 139.77990889 53.8462876 135.89423877 47.515625 131.53515625 C46.76023437 131.02662109 46.00484375 130.51808594 45.2265625 129.99414062 C44.47632813 129.48560547 43.72609375 128.97707031 42.953125 128.453125 C42.20804688 127.9482959 41.46296875 127.4434668 40.6953125 126.92333984 C38.515625 125.34765625 38.515625 125.34765625 36.5234375 123.58837891 C32.83837384 120.38559363 32.83837384 120.38559363 28.24121094 119.08178711 C25.57999781 119.28750413 23.11640183 119.74519547 20.515625 120.34765625 C19.52369141 120.57259766 18.53175781 120.79753906 17.50976562 121.02929688 C10.79511264 122.66550164 4.160884 124.60532509 -2.47900391 126.51904297 C-4.94871283 127.1999684 -7.39387477 127.77893688 -9.90234375 128.2890625 C-16.73794887 129.98089373 -20.03218419 132.43260516 -23.73657227 138.25952148 C-25.60345921 141.43917225 -27.35897129 144.67362954 -29.11035156 147.91796875 C-31.31832673 151.82233422 -33.87195255 155.45584387 -36.484375 159.09765625 C-36.98308105 159.79310547 -37.48178711 160.48855469 -37.99560547 161.20507812 C-39.48188463 163.2601087 -40.9810695 165.30505719 -42.484375 167.34765625 C-42.96970703 168.01410156 -43.45503906 168.68054688 -43.95507812 169.3671875 C-49.75249994 177.27914675 -54.80134919 184.11998098 -64.484375 187.34765625 C-71.77140543 188.16326883 -78.15619002 187.14244725 -84.484375 183.34765625 C-89.95352058 178.59627285 -93.07997543 173.87949901 -93.73046875 166.58984375 C-94.00955201 159.84110318 -93.50223436 154.85066494 -89.484375 149.34765625 C-83.61040378 143.09772871 -76.5006037 139.36098537 -68.921875 135.53515625 C-67.73101102 134.91783526 -66.54050504 134.29982324 -65.3503418 133.68115234 C-59.63571117 130.74217474 -53.90883713 128.03987036 -47.8828125 125.78125 C-34.94831837 121.31933906 -34.94831837 121.31933906 -26.609375 111.16015625 C-25.76110742 109.06499429 -25.01632313 106.96477337 -24.31640625 104.81542969 C-23.35875032 101.97505817 -22.24618829 99.22265116 -21.109375 96.44921875 C-19.12854052 91.586297 -17.16956409 86.72135195 -15.38549805 81.78222656 C-14.63835586 79.76366739 -13.77640253 77.78803963 -12.88671875 75.828125 C-12.23838572 70.21972958 -15.14273829 66.46003877 -17.921875 61.72265625 C-25.62572439 47.76642357 -34.65051058 30.84723603 -31.484375 14.34765625 C-29.07173015 7.98151774 -24.39581711 3.81073731 -18.72265625 0.23828125 C-13.13839597 -1.98372808 -5.74055059 -1.50734583 0 0 Z " fill="#FEF2F2" transform="translate(257.484375,197.65234375)"/>
<path d="M0 0 C18.67049013 -0.20393108 33.17609941 9.46585274 47 21 C47.55333008 21.45568359 48.10666016 21.91136719 48.67675781 22.38085938 C65.1118812 35.91566687 81.44897683 50.5380163 95 67 C95.65613281 67.77859375 96.31226563 68.5571875 96.98828125 69.359375 C99.36288727 72.21058934 101.69141233 75.09537072 104 78 C104.48726563 78.6094043 104.97453125 79.21880859 105.4765625 79.84667969 C114.56653817 91.29479603 124.16364642 103.92058474 124.0390625 119.20703125 C124.03342285 120.10526611 124.0277832 121.00350098 124.02197266 121.92895508 C124.01109619 122.95412231 124.01109619 122.95412231 124 124 C73.43332631 124.42797315 73.43332631 124.42797315 55 122 C54.23574707 121.90879883 53.47149414 121.81759766 52.68408203 121.72363281 C36.06314359 119.66094287 23.9196237 111.49751541 13.25 98.75 C4.21047286 86.21405198 2.5908211 74.12966644 1.2668457 59.03564453 C1.10011923 57.13895933 0.91655102 55.24359115 0.70776367 53.35107422 C-0.38807638 42.68515425 -0.10798839 31.95779449 -0.0625 21.25 C-0.05747502 19.18489692 -0.05291388 17.11979265 -0.04882812 15.0546875 C-0.03790143 10.0364287 -0.02069175 5.01822765 0 0 Z " fill="#494865" transform="translate(276,86)"/>
<path d="M0 0 C0 4.1289169 -2.13945757 6.367293 -4.5 9.5625 C-5.17687866 10.4920752 -5.17687866 10.4920752 -5.86743164 11.44042969 C-16.57639075 26.05092717 -16.57639075 26.05092717 -21 29 C-24.5772533 29.45667063 -26.33458305 29.43777431 -29.375 27.4375 C-31.64970619 24.02544071 -31.63534983 22.02388226 -31 18 C-27.53149159 13.89613865 -23.60888886 11.40297697 -18.875 9 C-17.89454712 8.48953125 -17.89454712 8.48953125 -16.89428711 7.96875 C-11.35444717 5.11192129 -5.72119458 2.47403009 0 0 Z " fill="#EF3C3E" transform="translate(211,340)"/>
<path d="M0 0 C2.2265625 1.56640625 2.2265625 1.56640625 4 4 C4.27734375 7.3984375 4.27734375 7.3984375 3.9375 11.375 C3.88021729 12.07238281 3.82293457 12.76976562 3.76391602 13.48828125 C3.11442765 20.45394556 1.68606947 27.21330527 0 34 C-3.82040421 32.08979789 -4.6612807 26.82222107 -6.125 23 C-6.49753906 22.07832031 -6.87007812 21.15664062 -7.25390625 20.20703125 C-9.39003281 14.65936189 -11.36934783 8.98213386 -10 3 C-7.15213345 -0.73921592 -4.54539019 -0.55820581 0 0 Z " fill="#F04143" transform="translate(252,213)"/>
<path d="M0 0 C6.02605814 4.38258774 10.57771586 10.06446309 15 16 C11.5665483 17.03480605 8.12770974 18.05040959 4.6875 19.0625 C3.71103516 19.35705078 2.73457031 19.65160156 1.72851562 19.95507812 C0.79072266 20.22900391 -0.14707031 20.50292969 -1.11328125 20.78515625 C-1.97735596 21.04176025 -2.84143066 21.29836426 -3.73168945 21.56274414 C-6 22 -6 22 -9 21 C-7.69167236 17.6858367 -6.37764349 14.37396387 -5.0625 11.0625 C-4.68931641 10.11697266 -4.31613281 9.17144531 -3.93164062 8.19726562 C-3.57392578 7.29814453 -3.21621094 6.39902344 -2.84765625 5.47265625 C-2.51773682 4.64000244 -2.18781738 3.80734863 -1.84790039 2.94946289 C-1 1 -1 1 0 0 Z " fill="#EF3E40" transform="translate(257,287)"/>
<path d="M0 0 C0.3125 3.5 0.3125 3.5 0 7 C-2 9 -2 9 -5.16015625 9.40234375 C-9.93503183 8.90202617 -12.57254291 7.25774521 -16.4375 4.5625 C-17.07365234 4.14162109 -17.70980469 3.72074219 -18.36523438 3.28710938 C-19.93777612 2.23142883 -21.47291428 1.12042766 -23 0 C-23 -0.33 -23 -0.66 -23 -1 C-5.53125 -3.6875 -5.53125 -3.6875 0 0 Z " fill="#EF3F40" transform="translate(332,313)"/>
</svg>
