<?xml version="1.0" encoding="UTF-8"?>
<svg version="1.1" xmlns="http://www.w3.org/2000/svg" width="612" height="408">
<path d="M0 0 C0.90251495 -0.11258841 1.80502991 -0.22517681 2.7348938 -0.34117699 C84.07826838 -10.01966143 84.07826838 -10.01966143 114.96948433 13.3190403 C121.95795566 18.90136478 128.3791313 24.9758721 134.61037064 31.38481522 C136.87087814 33.70028031 139.17425613 35.96489699 141.48776245 38.2272644 C157.89828556 54.55425186 167.51635013 69.23900538 167.84545898 92.88174438 C167.74556408 102.74960228 167.06567583 112.55659532 165.89868164 122.35375977 C165.15392578 122.25256836 164.40916992 122.15137695 163.6418457 122.04711914 C162.65925781 121.93174805 161.67666992 121.81637695 160.66430664 121.69750977 C159.69267578 121.57569336 158.72104492 121.45387695 157.7199707 121.32836914 C153.76317375 121.36397894 151.828947 122.98549078 148.74243164 125.25610352 C146.89868164 126.35375977 146.89868164 126.35375977 143.14868164 126.41625977 C139.49561595 125.22198829 138.02942242 124.54987093 135.89868164 121.35375977 C135.64391178 119.34744713 135.39277511 117.33904271 135.23852539 115.32250977 C134.7075309 112.24640374 133.05719887 110.51227699 130.89868164 108.35375977 C127.03429044 106.42156417 122.27431376 107.12536399 118.02368164 107.10375977 C117.01692383 107.08313477 116.01016602 107.06250977 114.97290039 107.04125977 C113.5169043 107.03352539 113.5169043 107.03352539 112.03149414 107.02563477 C110.69948975 107.01161621 110.69948975 107.01161621 109.34057617 106.99731445 C106.43240656 107.42182231 105.13944687 108.51627164 102.89868164 110.35375977 C102.23868164 110.35375977 101.57868164 110.35375977 100.89868164 110.35375977 C100.71305664 112.14813477 100.71305664 112.14813477 100.52368164 113.97875977 C100.04890439 117.64690184 99.43554618 120.95648026 97.89868164 124.35375977 C95.79951112 125.94623395 94.21614243 126.29203128 91.64868164 126.79125977 C88.6854997 126.31984446 87.41778765 125.50553485 84.96118164 123.85375977 C81.41435027 121.51804155 79.22943371 120.50643871 74.89868164 121.35375977 C71.7157981 123.22554092 71.7157981 123.22554092 68.89868164 125.35375977 C67.41368164 125.84875977 67.41368164 125.84875977 65.89868164 126.35375977 C64.68986068 128.35392443 64.68986068 128.35392443 63.89868164 130.35375977 C63.23868164 130.35375977 62.57868164 130.35375977 61.89868164 130.35375977 C61.60993164 130.93125977 61.32118164 131.50875977 61.02368164 132.10375977 C59.89868164 134.35375977 59.89868164 134.35375977 58.71118164 136.10375977 C57.44687482 139.6049171 57.94775279 142.84060596 58.89868164 146.35375977 C59.87503751 148.19279914 59.87503751 148.19279914 61.02368164 149.91625977 C63.25146869 154.00053603 62.98446209 155.92015627 61.89868164 160.35375977 C60.72305664 160.78688477 59.54743164 161.22000977 58.33618164 161.66625977 C57.60915039 161.94727539 56.88211914 162.22829102 56.13305664 162.51782227 C54.14233595 163.26260238 52.11550105 163.90917667 50.08618164 164.54125977 C46.64855201 166.49599034 45.46656692 167.92226182 44.32836914 171.70922852 C43.01048196 179.82022508 42.84713903 188.64359255 45.89868164 196.35375977 C47.803789 197.74835235 47.803789 197.74835235 50.14868164 198.16625977 C50.94918945 198.38024414 51.74969727 198.59422852 52.57446289 198.81469727 C53.34145508 198.99258789 54.10844727 199.17047852 54.89868164 199.35375977 C60.5137444 200.88514052 60.5137444 200.88514052 62.33618164 203.10375977 C63.10622332 206.18392648 62.74136731 208.30712695 61.89868164 211.35375977 C60.75138855 213.01309204 60.75138855 213.01309204 58.89868164 214.35375977 C56.01020813 214.73471069 56.01020813 214.73471069 52.44287109 214.74194336 C51.46662529 214.7498288 51.46662529 214.7498288 50.47065735 214.75787354 C48.31751533 214.7710828 46.16511257 214.76232777 44.01196289 214.75219727 C42.51083739 214.75421898 41.00971284 214.75713123 39.5085907 214.76089478 C36.35865958 214.76532038 33.2089835 214.75888427 30.05908203 214.74487305 C26.03871024 214.72785431 22.01894253 214.73757376 17.99859333 214.75559044 C14.895437 214.7664851 11.79242129 214.7629548 8.68926048 214.75520706 C7.2082226 214.75321687 5.72717163 214.75562248 4.24614906 214.76264572 C-3.39267181 214.79089968 -10.11019466 214.75941722 -17.10131836 211.35375977 C-17.10131836 210.69375977 -17.10131836 210.03375977 -17.10131836 209.35375977 C-17.69944336 209.16813477 -18.29756836 208.98250977 -18.91381836 208.79125977 C-22.06818 206.71839355 -23.0193428 203.84196962 -24.10131836 200.35375977 C-24.37533366 197.66761879 -24.5121909 195.22052741 -24.48899841 192.54249573 C-24.49707672 191.40880528 -24.49707672 191.40880528 -24.50531822 190.25221199 C-24.51955268 187.73584368 -24.51250545 185.22000479 -24.50537109 182.70361328 C-24.51107702 180.89291971 -24.51804215 179.08222973 -24.52616882 177.27154541 C-24.54409049 172.36450247 -24.54293373 167.45763845 -24.53722644 162.55057263 C-24.53413323 158.45017079 -24.5402285 154.34980324 -24.54626518 150.24940628 C-24.56030548 140.57444488 -24.55875316 130.89957179 -24.54736328 121.22460938 C-24.53588167 111.25149137 -24.54995963 101.27864227 -24.57675976 91.30555969 C-24.59892751 82.73464459 -24.60555173 74.16381382 -24.59968334 65.59287208 C-24.59631526 60.47747891 -24.59871912 55.36225812 -24.61593437 50.24688911 C-24.63141857 45.43606642 -24.62743153 40.62564165 -24.60862923 35.81483459 C-24.60494748 34.0524395 -24.60803973 32.29001483 -24.61851501 30.52764702 C-24.70942391 13.96466167 -24.70942391 13.96466167 -20.10131836 7.35375977 C-14.50433036 1.75677176 -7.52883998 0.93411675 0 0 Z M91.89868164 18.35375977 C90.24004644 20.01239496 90.7459079 21.98691888 90.72167969 24.26904297 C90.70884445 25.31715652 90.69600922 26.36527008 90.68278503 27.44514465 C90.6753981 28.58674545 90.66801117 29.72834625 90.66040039 30.90454102 C90.65232864 32.07002975 90.6442569 33.23551849 90.63594055 34.43632507 C90.62207974 36.9087067 90.61136657 39.38110761 90.60351562 41.85351562 C90.58630206 45.63977237 90.54243213 49.42515654 90.49829102 53.21118164 C90.48816484 55.60896165 90.4796485 58.00674912 90.47290039 60.40454102 C90.4553923 61.54006912 90.43788422 62.67559723 90.41984558 63.84553528 C90.42277115 64.90310532 90.42569672 65.96067535 90.42871094 67.05029297 C90.4228447 67.97993362 90.41697845 68.90957428 90.41093445 69.86738586 C91.0638877 73.19592562 92.18704584 74.35582485 94.89868164 76.35375977 C97.43115326 76.92804822 97.43115326 76.92804822 100.21801758 76.80786133 C101.80921417 76.80740814 101.80921417 76.80740814 103.43255615 76.8069458 C105.14055389 76.77597809 105.14055389 76.77597809 106.88305664 76.74438477 C108.05378723 76.73872498 109.22451782 76.73306519 110.4307251 76.72723389 C114.17045964 76.70484101 117.90923661 76.65463657 121.64868164 76.60375977 C124.18382406 76.58369865 126.71898149 76.56544721 129.25415039 76.54907227 C135.46932093 76.50496655 141.68393288 76.43802431 147.89868164 76.35375977 C148.39368164 75.36375977 148.39368164 75.36375977 148.89868164 74.35375977 C148.23868164 73.36375977 147.57868164 72.37375977 146.89868164 71.35375977 C146.23868164 71.35375977 145.57868164 71.35375977 144.89868164 71.35375977 C144.63055664 70.71438477 144.36243164 70.07500977 144.08618164 69.41625977 C143.01200412 67.0224429 143.01200412 67.0224429 139.89868164 66.35375977 C139.56868164 65.36375977 139.23868164 64.37375977 138.89868164 63.35375977 C137.46924594 62.1570229 136.03563308 60.96466162 134.57446289 59.80688477 C132.80927434 58.27623176 131.38333365 56.65571207 129.89868164 54.85375977 C127.19916401 51.59037422 124.1603642 49.06026232 120.89868164 46.35375977 C119.23201497 44.35375977 117.56534831 42.35375977 115.89868164 40.35375977 C114.44461914 39.14719727 114.44461914 39.14719727 112.96118164 37.91625977 C110.03594211 35.46861036 107.75972003 32.96200584 105.33227539 30.04907227 C101.61457877 25.65266809 97.39033682 21.9266673 92.89868164 18.35375977 C92.56868164 18.35375977 92.23868164 18.35375977 91.89868164 18.35375977 Z " fill="#C83431" transform="translate(221.101318359375,97.646240234375)"/>
<path d="M0 0 C3.12498063 -0.02895976 6.2499269 -0.04678483 9.375 -0.0625 C10.70917969 -0.07506836 10.70917969 -0.07506836 12.0703125 -0.08789062 C12.92109375 -0.09111328 13.771875 -0.09433594 14.6484375 -0.09765625 C15.43395996 -0.10289307 16.21948242 -0.10812988 17.02880859 -0.11352539 C19 0 19 0 21 1 C21.63801836 3.5315866 22.16687368 5.99839502 22.625 8.5625 C22.82609375 9.62887695 22.82609375 9.62887695 23.03125 10.71679688 C23.36191847 12.47642553 23.68195767 14.23804548 24 16 C24.763125 16.13148438 25.52625 16.26296875 26.3125 16.3984375 C29 17 29 17 32 18.625 C35.48486836 20.22223133 36.41316742 20.06693525 40 19 C42.48640486 17.62229397 42.48640486 17.62229397 44.8125 15.9375 C45.99779297 15.11572266 45.99779297 15.11572266 47.20703125 14.27734375 C47.79871094 13.85582031 48.39039063 13.43429688 49 13 C54.88898214 15.72494568 60.64993957 20.41656594 64 26 C64.19960405 30.49109111 62.5404204 32.72628471 59.8125 36.0625 C58.19082447 38.05155831 58.19082447 38.05155831 57 40 C57.23177447 42.59021952 57.23177447 42.59021952 59 45 C59.21785156 45.73734375 59.43570313 46.4746875 59.66015625 47.234375 C60.50318029 49.89477249 61.26760749 51.80153235 63 54 C65.86105779 55.04819535 68.4104964 55.42450648 71.44140625 55.68359375 C74 56 74 56 77 58 C78.52320041 65.21731203 78.32220987 72.03337038 76 79 C75.03578125 79.10054688 74.0715625 79.20109375 73.078125 79.3046875 C65.78605571 80.10297212 65.78605571 80.10297212 60.21484375 84.28515625 C59.2167889 86.8618834 58.52658994 89.28998833 58 92 C57.73832031 92.66257812 57.47664063 93.32515625 57.20703125 94.0078125 C56.80644925 97.86246946 60.2367867 100.61000192 62.53125 103.46484375 C64 106 64 106 64.04296875 108.44921875 C62.62738103 111.91131156 60.42018327 114.27762377 57.8125 116.875 C57.34263672 117.38546875 56.87277344 117.8959375 56.38867188 118.421875 C54.95703125 119.8671875 54.95703125 119.8671875 52 122 C47.91563335 121.97970501 45.53356717 121.03680649 42.5 118.375 C39.83581562 116.334223 39.33497769 115.99343181 35.8125 116.0625 C33.07240929 116.89600038 33.07240929 116.89600038 30.9375 118.0625 C29 119 29 119 24 119 C23.01 123.95 22.02 128.9 21 134 C14.21461187 136.26179604 14.21461187 136.26179604 10 136.1875 C8.7934375 136.17783203 8.7934375 136.17783203 7.5625 136.16796875 C4.66145769 135.97780896 1.85887572 135.51941783 -1 135 C-1.17273438 133.96359375 -1.34546875 132.9271875 -1.5234375 131.859375 C-2.83792063 124.14878931 -2.83792063 124.14878931 -7.31640625 118.078125 C-11.86033376 116.20908775 -15.22919909 115.57565174 -20 117 C-22.08049496 118.1960536 -22.08049496 118.1960536 -24 119.625 C-27.6517341 122 -27.6517341 122 -30.75 122 C-33.1818301 120.91918662 -35.04517116 119.8100267 -37 118 C-37 117.34 -37 116.68 -37 116 C-37.66 116 -38.32 116 -39 116 C-41.13087452 113.9303575 -42.71601364 111.676326 -44 109 C-43.54694342 105.89332629 -42.55253044 103.89886292 -40.921875 101.24609375 C-38.58755472 97.69975012 -38.58755472 97.69975012 -38.2890625 93.6171875 C-39.01067009 90.96071998 -39.75540061 88.31934585 -40.5625 85.6875 C-40.83191406 84.80449219 -41.10132813 83.92148437 -41.37890625 83.01171875 C-41.58386719 82.34785156 -41.78882813 81.68398438 -42 81 C-43.12148438 80.92652344 -43.12148438 80.92652344 -44.265625 80.8515625 C-45.25046875 80.77679688 -46.2353125 80.70203125 -47.25 80.625 C-48.22453125 80.55539062 -49.1990625 80.48578125 -50.203125 80.4140625 C-52.96646348 80.0049649 -54.72723781 79.61595477 -57 78 C-58.43154644 74.68483983 -58.13316872 71.06156237 -58.125 67.5 C-58.12757813 66.3759375 -58.13015625 65.251875 -58.1328125 64.09375 C-58.02266367 61.5279301 -57.75270662 59.43733573 -57 57 C-56.04738281 56.91105469 -55.09476562 56.82210937 -54.11328125 56.73046875 C-46.66797877 55.8524327 -46.66797877 55.8524327 -40.921875 51.52734375 C-38.67406522 46.7281407 -37.36300873 43.18658968 -39 38 C-39.84693334 36.49230132 -40.74442028 35.01200061 -41.6875 33.5625 C-44.03390393 29.42379918 -44.03390393 29.42379918 -43.75 25.875 C-40.73726015 20.92549882 -36.80457565 17.20305043 -32 14 C-29.3125 13.875 -29.3125 13.875 -27 14 C-27 14.66 -27 15.32 -27 16 C-26.4225 16.103125 -25.845 16.20625 -25.25 16.3125 C-23 17 -23 17 -21.1875 18.625 C-18.94496835 20.32074023 -18.94496835 20.32074023 -15.5625 19.875 C-12.12592021 19.03092777 -9.94752975 17.883144 -7 16 C-6.01 16 -5.02 16 -4 16 C-3.81824219 14.89591797 -3.81824219 14.89591797 -3.6328125 13.76953125 C-3.46523438 12.79371094 -3.29765625 11.81789062 -3.125 10.8125 C-2.96257812 9.84957031 -2.80015625 8.88664063 -2.6328125 7.89453125 C-2.01960483 5.08967396 -1.14333657 2.62775253 0 0 Z M-14.01953125 46.078125 C-20.39804132 53.75919396 -22.63019096 61.05317742 -22.3515625 71.0078125 C-21.44748898 78.70248269 -17.8744814 85.09931199 -13 91 C-12.34 91 -11.68 91 -11 91 C-11 91.66 -11 92.32 -11 93 C-9.27559635 93.98753064 -7.54524974 94.96468806 -5.8125 95.9375 C-4.84957031 96.48277344 -3.88664062 97.02804687 -2.89453125 97.58984375 C4.10469962 100.99972546 12.37284502 101.04289952 19.75 98.75 C28.75521053 95.32170055 35.35022614 89.06200838 39.375 80.3125 C43.4038449 70.24038776 42.20480738 61.86815732 38 52 C33.70959348 43.9688953 26.79834482 39.88506403 18.5 36.625 C5.89412939 34.37395168 -4.92882141 36.72366149 -14.01953125 46.078125 Z " fill="#9F9F9F" transform="translate(329,211)"/>
<path d="M0 0 C1.40840778 -0.11445969 1.40840778 -0.11445969 2.84526825 -0.23123169 C15.18503732 -1.18595999 27.53913285 -1.75152302 39.90869141 -2.13623047 C41.09449799 -2.17453979 42.28030457 -2.21284912 43.50204468 -2.25231934 C95.32717455 -3.74199047 95.32717455 -3.74199047 115.67294312 14.86935425 C126.08340683 24.90766109 134.9665971 36.70365983 142.53369141 48.98876953 C139.53369141 49.98876953 139.53369141 49.98876953 137.53369141 49.98876953 C137.53369141 48.99876953 137.53369141 48.00876953 137.53369141 46.98876953 C136.54369141 46.65876953 135.55369141 46.32876953 134.53369141 45.98876953 C134.20369141 45.32876953 133.87369141 44.66876953 133.53369141 43.98876953 C131.88369141 43.98876953 130.23369141 43.98876953 128.53369141 43.98876953 C127.5795626 46.56491732 127.51387293 47.90553192 128.15869141 50.61376953 C129.87353484 53.57577182 131.30980953 54.05554057 134.53369141 54.98876953 C134.53369141 55.64876953 134.53369141 56.30876953 134.53369141 56.98876953 C135.11119141 57.03001953 135.68869141 57.07126953 136.28369141 57.11376953 C139.70367574 58.44376344 140.73620373 60.88965285 142.53369141 63.98876953 C142.86369141 64.97876953 143.19369141 65.96876953 143.53369141 66.98876953 C144.85369141 66.98876953 146.17369141 66.98876953 147.53369141 66.98876953 C149.34619141 68.11376953 149.34619141 68.11376953 150.53369141 69.98876953 C150.40869141 73.05126953 150.40869141 73.05126953 149.53369141 75.98876953 C146.16721215 78.23308903 145.07746494 78.23382113 141.14428711 78.21582031 C140.04337234 78.21566925 138.94245758 78.21551819 137.80818176 78.21536255 C136.02682076 78.19987869 136.02682076 78.19987869 134.20947266 78.18408203 C132.99293503 78.18125214 131.7763974 78.17842224 130.522995 78.17550659 C126.63062782 78.16429556 122.73848924 78.13918901 118.84619141 78.11376953 C116.21012702 78.10374094 113.57405903 78.09461488 110.93798828 78.08642578 C104.46981109 78.06435319 98.00176758 78.03086641 91.53369141 77.98876953 C90.87369141 76.66876953 90.21369141 75.34876953 89.53369141 73.98876953 C88.87369141 73.98876953 88.21369141 73.98876953 87.53369141 73.98876953 C86.69450361 67.43360445 86.38638125 61.04662266 86.40087891 54.44189453 C86.39992218 53.46766541 86.39896545 52.49343628 86.39797974 51.48968506 C86.39730355 49.44592219 86.39911837 47.4021571 86.40332031 45.35839844 C86.4086999 42.23383789 86.4033443 39.10941956 86.39697266 35.98486328 C86.39763308 33.99137338 86.39891351 31.99788357 86.40087891 30.00439453 C86.39885468 29.07411438 86.39683044 28.14383423 86.39474487 27.18536377 C86.40990526 22.99383221 86.46187229 19.07381599 87.53369141 14.98876953 C90.59216989 14.44504002 93.42141945 13.98876953 96.53369141 13.98876953 C97.19369141 12.99876953 97.85369141 12.00876953 98.53369141 10.98876953 C94.01284932 6.49540977 90.98396656 4.25204607 84.53369141 3.98876953 C84.53369141 4.64876953 84.53369141 5.30876953 84.53369141 5.98876953 C83.54369141 5.49376953 83.54369141 5.49376953 82.53369141 4.98876953 C79.87994288 4.86633915 77.25070778 4.80308152 74.59570312 4.78344727 C73.77611115 4.77354767 72.95651917 4.76364807 72.11209106 4.75344849 C69.39588333 4.7217942 66.67965809 4.69706056 63.96337891 4.67236328 C62.08293191 4.65179714 60.20248957 4.63080077 58.322052 4.60939026 C53.3671241 4.55413443 48.41215424 4.50474065 43.45715332 4.45654297 C38.40320084 4.40635356 33.34930947 4.35065414 28.29541016 4.29541016 C18.37488941 4.18778565 8.45431567 4.08635022 -1.46630859 3.98876953 C-1.46630859 4.64876953 -1.46630859 5.30876953 -1.46630859 5.98876953 C-5.09630859 5.98876953 -8.72630859 5.98876953 -12.46630859 5.98876953 C-12.69318359 7.10251953 -12.92005859 8.21626953 -13.15380859 9.36376953 C-14.46630859 12.98876953 -14.46630859 12.98876953 -17.04833984 14.21533203 C-17.84626953 14.47056641 -18.64419922 14.72580078 -19.46630859 14.98876953 C-20.4687281 25.67527751 -20.53911662 36.27489449 -20.34130859 47.00366211 C-20.32970703 48.10476318 -20.31810547 49.20586426 -20.30615234 50.34033203 C-20.28931396 51.30793457 -20.27247559 52.27553711 -20.25512695 53.27246094 C-20.44292058 56.57719458 -20.89652701 59.62748611 -21.45957947 62.88294983 C-22.53111654 69.75580417 -22.7723193 76.45223456 -22.78515625 83.39819336 C-22.79520187 84.66805588 -22.8052475 85.9379184 -22.81559753 87.2462616 C-22.84257564 90.6833863 -22.85794968 94.12047082 -22.87102556 97.55767274 C-22.88679928 101.16648031 -22.91354295 104.77520742 -22.9390564 108.38395691 C-22.98559479 115.19752546 -23.02245845 122.01110957 -23.05572927 128.82475442 C-23.0941284 136.59037542 -23.1434911 144.3559151 -23.19371343 152.12146723 C-23.2966617 168.07717564 -23.3860411 184.03292991 -23.46630859 199.98876953 C-23.79630859 199.98876953 -24.12630859 199.98876953 -24.46630859 199.98876953 C-24.55977849 176.00596997 -24.6303009 152.02319775 -24.67355728 128.04025269 C-24.69417643 116.90437732 -24.72228479 105.76861519 -24.76806641 94.6328125 C-24.80795383 84.92606562 -24.83374611 75.21940075 -24.84266257 65.5125742 C-24.84787406 60.37356476 -24.86010969 55.23478991 -24.88922882 50.09585571 C-24.91642791 45.25644931 -24.92474446 40.41737361 -24.91873932 35.57789803 C-24.91983754 33.80420191 -24.92776462 32.03049445 -24.94313049 30.25686455 C-24.96312926 27.82888126 -24.95821253 25.40213497 -24.94732666 22.97412109 C-24.95897803 22.27759839 -24.97062939 21.58107569 -24.98263383 20.86344624 C-24.90436063 14.37337069 -22.64227211 9.16473305 -18.09130859 4.61376953 C-12.37599204 1.07571642 -6.54745282 0.50923022 0 0 Z M91.53369141 17.98876953 C89.87505621 19.64740473 90.38091767 21.62192865 90.35668945 23.90405273 C90.34385422 24.95216629 90.33101898 26.00027985 90.3177948 27.08015442 C90.31040787 28.22175522 90.30302094 29.36335602 90.29541016 30.53955078 C90.28733841 31.70503952 90.27926666 32.87052826 90.27095032 34.07133484 C90.25708951 36.54371646 90.24637634 39.01611738 90.23852539 41.48852539 C90.22131183 45.27478214 90.17744189 49.0601663 90.13330078 52.84619141 C90.12317461 55.24397142 90.11465827 57.64175888 90.10791016 60.03955078 C90.09040207 61.17507889 90.07289398 62.31060699 90.05485535 63.48054504 C90.05778091 64.53811508 90.06070648 65.59568512 90.0637207 66.68530273 C90.05785446 67.61494339 90.05198822 68.54458405 90.04594421 69.50239563 C90.69889746 72.83093538 91.8220556 73.99083462 94.53369141 75.98876953 C97.06616302 76.56305799 97.06616302 76.56305799 99.85302734 76.44287109 C101.44422394 76.44241791 101.44422394 76.44241791 103.06756592 76.44195557 C104.77556366 76.41098785 104.77556366 76.41098785 106.51806641 76.37939453 C107.688797 76.37373474 108.85952759 76.36807495 110.06573486 76.36224365 C113.8054694 76.33985078 117.54424637 76.28964633 121.28369141 76.23876953 C123.81883382 76.21870842 126.35399125 76.20045698 128.88916016 76.18408203 C135.1043307 76.13997631 141.31894264 76.07303407 147.53369141 75.98876953 C148.02869141 74.99876953 148.02869141 74.99876953 148.53369141 73.98876953 C147.87369141 72.99876953 147.21369141 72.00876953 146.53369141 70.98876953 C145.87369141 70.98876953 145.21369141 70.98876953 144.53369141 70.98876953 C144.26556641 70.34939453 143.99744141 69.71001953 143.72119141 69.05126953 C142.64701388 66.65745267 142.64701388 66.65745267 139.53369141 65.98876953 C139.20369141 64.99876953 138.87369141 64.00876953 138.53369141 62.98876953 C137.1042557 61.79203266 135.67064284 60.59967139 134.20947266 59.44189453 C132.44428411 57.91124152 131.01834342 56.29072184 129.53369141 54.48876953 C126.83417377 51.22538398 123.79537397 48.69527208 120.53369141 45.98876953 C118.86702474 43.98876953 117.20035807 41.98876953 115.53369141 39.98876953 C114.07962891 38.78220703 114.07962891 38.78220703 112.59619141 37.55126953 C109.67095188 35.10362013 107.3947298 32.5970156 104.96728516 29.68408203 C101.24958853 25.28767785 97.02534659 21.56167706 92.53369141 17.98876953 C92.20369141 17.98876953 91.87369141 17.98876953 91.53369141 17.98876953 Z " fill="#D36A5D" transform="translate(221.46630859375,98.01123046875)"/>
<path d="M0 0 C1.00882233 -0.00671722 2.01764465 -0.01343445 3.05703735 -0.02035522 C6.3816626 -0.0393076 9.70608587 -0.04325737 13.03076172 -0.04541016 C15.34431033 -0.05183754 17.65785813 -0.05856586 19.97140503 -0.06558228 C24.81494025 -0.07754636 29.65840417 -0.08126374 34.50195312 -0.08007812 C40.71417243 -0.07987443 46.92593688 -0.10723345 53.13804817 -0.14162254 C57.91293448 -0.16382979 62.68770999 -0.16791764 67.46264267 -0.16685867 C69.753626 -0.16922176 72.04461206 -0.17808485 74.33554459 -0.19352341 C77.53392009 -0.21306781 80.73129672 -0.20739157 83.9296875 -0.1953125 C85.35269165 -0.21217102 85.35269165 -0.21217102 86.80444336 -0.22937012 C93.19325621 -0.1679002 93.19325621 -0.1679002 96.43893433 2.14901733 C98.12256655 4.7308124 98.17162508 6.26494462 97.83544922 9.29052734 C97.32755859 8.94119141 96.81966797 8.59185547 96.29638672 8.23193359 C92.14139266 5.48528022 88.92660117 3.67236374 83.83544922 3.29052734 C83.83544922 3.95052734 83.83544922 4.61052734 83.83544922 5.29052734 C82.84544922 4.79552734 82.84544922 4.79552734 81.83544922 4.29052734 C79.1817007 4.16809696 76.55246559 4.10483933 73.89746094 4.08520508 C73.07786896 4.07530548 72.25827698 4.06540588 71.41384888 4.0552063 C68.69764114 4.02355201 65.9814159 3.99881837 63.26513672 3.97412109 C61.38468972 3.95355496 59.50424739 3.93255858 57.62380981 3.91114807 C52.66888191 3.85589225 47.71391205 3.80649847 42.75891113 3.75830078 C37.70495865 3.70811137 32.65106728 3.65241196 27.59716797 3.59716797 C17.67664723 3.48954346 7.75607348 3.38810804 -2.16455078 3.29052734 C-2.16455078 3.95052734 -2.16455078 4.61052734 -2.16455078 5.29052734 C-5.79455078 5.29052734 -9.42455078 5.29052734 -13.16455078 5.29052734 C-13.39142578 6.40427734 -13.61830078 7.51802734 -13.85205078 8.66552734 C-15.16455078 12.29052734 -15.16455078 12.29052734 -17.74658203 13.51708984 C-18.54451172 13.77232422 -19.34244141 14.02755859 -20.16455078 14.29052734 C-21.16697029 24.97703533 -21.23735881 35.5766523 -21.03955078 46.30541992 C-21.02794922 47.406521 -21.01634766 48.50762207 -21.00439453 49.64208984 C-20.98755615 50.60969238 -20.97071777 51.57729492 -20.95336914 52.57421875 C-21.14116277 55.8789524 -21.59476919 58.92924392 -22.15782166 62.18470764 C-23.22935873 69.05756199 -23.47056148 75.75399237 -23.48339844 82.69995117 C-23.49344406 83.96981369 -23.50348969 85.23967621 -23.51383972 86.54801941 C-23.54081783 89.98514412 -23.55619186 93.42222864 -23.56926775 96.85943055 C-23.58504147 100.46823813 -23.61178514 104.07696523 -23.63729858 107.68571472 C-23.68383698 114.49928327 -23.72070063 121.31286738 -23.75397146 128.12651223 C-23.79237059 135.89213323 -23.84173328 143.65767291 -23.89195561 151.42322505 C-23.99490389 167.37893345 -24.08428329 183.33468772 -24.16455078 199.29052734 C-24.49455078 199.29052734 -24.82455078 199.29052734 -25.16455078 199.29052734 C-25.25802068 175.30772779 -25.32854308 151.32495556 -25.37179947 127.3420105 C-25.39241862 116.20613514 -25.42052698 105.070373 -25.46630859 93.93457031 C-25.50619602 84.22782344 -25.5319883 74.52115856 -25.54090476 64.81433201 C-25.54611625 59.67532257 -25.55835188 54.53654773 -25.58747101 49.39761353 C-25.6146701 44.55820712 -25.62298665 39.71913142 -25.61698151 34.87965584 C-25.61807973 33.10595972 -25.62600681 31.33225226 -25.64137268 29.55862236 C-25.66137145 27.13063907 -25.65645472 24.70389278 -25.64556885 22.27587891 C-25.65722021 21.5793562 -25.66887158 20.8828335 -25.68087602 20.16520405 C-25.60260282 13.6751285 -23.3405143 8.46649086 -18.78955078 3.91552734 C-12.67156598 0.12820342 -6.98322817 -0.00670047 0 0 Z " fill="#F3B9B0" transform="translate(222.16455078125,98.70947265625)"/>
<path d="M0 0 C2.6875 1.25 2.6875 1.25 4.125 3 C4.89504168 6.08016672 4.53018567 8.20336718 3.6875 11.25 C2.54318237 12.9103241 2.54318237 12.9103241 0.6875 14.25 C-2.22116089 14.6242218 -2.22116089 14.6242218 -5.81591797 14.62231445 C-6.47156738 14.62596512 -7.1272168 14.62961578 -7.80273438 14.63337708 C-9.97031559 14.64148314 -12.13714914 14.62787 -14.3046875 14.61328125 C-15.81299845 14.61276252 -17.32131008 14.61328072 -18.82962036 14.61479187 C-21.99214766 14.61470214 -25.15442011 14.60427299 -28.31689453 14.58618164 C-32.36436644 14.56353319 -36.41146469 14.5629432 -40.45898247 14.56969929 C-43.57487285 14.57304693 -46.69067858 14.56639358 -49.80655289 14.55657005 C-51.29843833 14.55272854 -52.79033321 14.55156548 -54.28222275 14.5531559 C-56.37176057 14.55352821 -58.46082631 14.54085945 -60.55029297 14.5246582 C-61.73815399 14.52005081 -62.92601501 14.51544342 -64.14987183 14.51069641 C-67.3302999 14.24853275 -69.49254949 13.72047442 -72.3125 12.25 C-74.79302629 9.2331437 -76.22140237 7.2976227 -76.5625 3.375 C-76.48 2.67375 -76.3975 1.9725 -76.3125 1.25 C-75.1678125 2.425625 -75.1678125 2.425625 -74 3.625 C-71.40358195 6.32257717 -71.40358195 6.32257717 -68.3125 8.25 C-67.6525 8.91 -66.9925 9.57 -66.3125 10.25 C-63.87392931 10.55665277 -63.87392931 10.55665277 -61.00830078 10.50878906 C-59.34615036 10.51824554 -59.34615036 10.51824554 -57.65042114 10.52789307 C-56.44836029 10.5238446 -55.24629944 10.51979614 -54.0078125 10.515625 C-52.77715057 10.51753845 -51.54648865 10.5194519 -50.27853394 10.52142334 C-47.0019023 10.52313631 -43.72545911 10.51506812 -40.44885254 10.50390625 C-38.44256524 10.50000984 -36.43645339 10.50388437 -34.43017578 10.51074219 C-30.58097185 10.52309003 -26.73202722 10.52160053 -22.8828125 10.515625 C-21.08579391 10.52169769 -21.08579391 10.52169769 -19.25247192 10.52789307 C-18.13806732 10.52158875 -17.02366272 10.51528442 -15.87548828 10.50878906 C-14.89556915 10.50719788 -13.91565002 10.50560669 -12.90603638 10.50396729 C-10.24079405 10.24297833 -8.59603842 9.60967182 -6.3125 8.25 C-6.3125 6.93 -6.3125 5.61 -6.3125 4.25 C-7.6325 3.92 -8.9525 3.59 -10.3125 3.25 C-10.3125 2.59 -10.3125 1.93 -10.3125 1.25 C-11.3025 0.755 -11.3025 0.755 -12.3125 0.25 C-8.38594273 -1.71327864 -4.15580055 -0.94093597 0 0 Z " fill="#B0757B" transform="translate(279.3125,297.75)"/>
<path d="M0 0 C2.6875 0.3125 2.6875 0.3125 5 2.125 C6.6875 4.3125 6.6875 4.3125 6.6875 7.3125 C7.6775 6.9825 8.6675 6.6525 9.6875 6.3125 C13.33733493 8.10231936 16.04454281 10.42200425 18.89453125 13.2890625 C19.64541016 14.041875 20.39628906 14.7946875 21.16992188 15.5703125 C21.93884766 16.35148437 22.70777344 17.13265625 23.5 17.9375 C24.28826172 18.72640625 25.07652344 19.5153125 25.88867188 20.328125 C31.6875 26.1721388 31.6875 26.1721388 31.6875 27.3125 C31.04941406 27.43367188 30.41132813 27.55484375 29.75390625 27.6796875 C28.92761719 27.84726563 28.10132813 28.01484375 27.25 28.1875 C26.01443359 28.43113281 26.01443359 28.43113281 24.75390625 28.6796875 C24.07199219 28.88851562 23.39007813 29.09734375 22.6875 29.3125 C22.3575 29.9725 22.0275 30.6325 21.6875 31.3125 C21.0275 31.3125 20.3675 31.3125 19.6875 31.3125 C19.6875 29.9925 19.6875 28.6725 19.6875 27.3125 C18.6975 26.9825 17.7075 26.6525 16.6875 26.3125 C16.6875 25.6525 16.6875 24.9925 16.6875 24.3125 C15.3675 24.3125 14.0475 24.3125 12.6875 24.3125 C10.52887439 22.02689642 8.96770678 19.90587907 7.625 17.0625 C6.75252056 14.95255363 6.75252056 14.95255363 3.6875 14.3125 C3.3575 13.6525 3.0275 12.9925 2.6875 12.3125 C1.883125 12.044375 1.07875 11.77625 0.25 11.5 C-2.3125 10.3125 -2.3125 10.3125 -3.6875 7.9375 C-4.33703497 5.20945313 -4.3262467 3.89294614 -3.3125 1.3125 C-2.3125 0.3125 -2.3125 0.3125 0 0 Z " fill="#D64F3F" transform="translate(352.3125,140.6875)"/>
<path d="M0 0 C0.33 0 0.66 0 1 0 C1.01030746 1.03681412 1.02061493 2.07362823 1.03123474 3.14186096 C1.12910768 12.92597302 1.23185448 22.71002345 1.33933926 32.49403477 C1.39443878 37.52375228 1.44783756 42.55347574 1.49731445 47.58325195 C1.54514992 52.43974106 1.59749875 57.2961627 1.65294075 62.15257072 C1.67327767 64.00284069 1.69200459 65.85312909 1.70907402 67.70343208 C1.73331085 70.30048385 1.76333761 72.89741032 1.79467773 75.49438477 C1.8004332 76.25467987 1.80618866 77.01497498 1.81211853 77.79830933 C1.85939493 81.25831422 2.06892556 84.46801561 2.57533264 87.90660095 C3 91 3 91 2 93 C2.09260969 95.31524233 2.25061376 97.62795521 2.4375 99.9375 C3.13213846 109.29500844 3.09173974 118.62216033 3 128 C4.32 128.33 5.64 128.66 7 129 C6.6596875 130.5778125 6.6596875 130.5778125 6.3125 132.1875 C5.96819556 136.38801417 6.51227742 137.7162062 9 141 C8.01 141 7.02 141 6 141 C6 140.34 6 139.68 6 139 C5.071875 138.6596875 5.071875 138.6596875 4.125 138.3125 C1.30219935 136.56900548 0.99801085 135.13214943 0 132 C-0.24609566 129.32326794 -0.24609566 129.32326794 -0.24050903 126.38749695 C-0.24325836 125.26995529 -0.24600769 124.15241364 -0.24884033 123.00100708 C-0.24164978 121.78468597 -0.23445923 120.56836487 -0.22705078 119.31518555 C-0.22748886 117.38288338 -0.22748886 117.38288338 -0.22793579 115.4115448 C-0.22850881 111.88710382 -0.21676279 108.3627994 -0.20278788 104.83839011 C-0.19027202 101.15218027 -0.18910934 97.46596719 -0.18673706 93.77973938 C-0.1805248 86.80293019 -0.16411744 79.8261838 -0.14403808 72.84940225 C-0.12167116 64.90506903 -0.11068366 56.96073278 -0.10064721 49.0163759 C-0.07975098 32.67754719 -0.04457995 16.33878161 0 0 Z " fill="#972D32" transform="translate(198,168)"/>
<path d="M0 0 C0.87479004 -0.00852997 1.74958008 -0.01705994 2.65087891 -0.02584839 C4.07859619 -0.02448883 4.07859619 -0.02448883 5.53515625 -0.02310181 C6.54368652 -0.02981903 7.5522168 -0.03653625 8.59130859 -0.04345703 C11.92680783 -0.06246345 15.26210622 -0.06636227 18.59765625 -0.06851196 C20.91406335 -0.07493692 23.23046963 -0.08166505 25.546875 -0.08868408 C30.4023629 -0.10066267 35.25777961 -0.10436419 40.11328125 -0.10317993 C46.34125205 -0.10297646 52.56876799 -0.13030597 58.79663086 -0.16472435 C63.58009955 -0.1869354 68.36345766 -0.19101929 73.14697266 -0.18996048 C75.44353812 -0.19232413 77.74010628 -0.20119036 80.03662109 -0.21662521 C83.24479296 -0.23617202 86.45196912 -0.23049178 89.66015625 -0.21841431 C91.08787354 -0.23527283 91.08787354 -0.23527283 92.54443359 -0.25247192 C98.95498142 -0.19099667 98.95498142 -0.19099667 102.203125 2.12591553 C103.88431236 4.7076286 103.93369216 6.24310238 103.59765625 9.26742554 C99.72265625 6.64242554 99.72265625 6.64242554 98.59765625 3.26742554 C63.28765625 2.93742554 27.97765625 2.60742554 -8.40234375 2.26742554 C-4.78195596 0.45723164 -3.74468768 0.016557 0 0 Z " fill="#E3AEA3" transform="translate(216.40234375,98.73257446289063)"/>
<path d="M0 0 C0.66 0 1.32 0 2 0 C5 3.46153846 5 3.46153846 5 6 C5.99 6 6.98 6 8 6 C8.33 6.66 8.66 7.32 9 8 C9.639375 8.309375 10.27875 8.61875 10.9375 8.9375 C13.94095118 10.48473243 14.83183228 12.49549685 15.875 15.625 C16.75320779 18.18624774 16.75320779 18.18624774 19.125 18.8125 C20.053125 18.9053125 20.053125 18.9053125 21 19 C20.67 19.99 20.34 20.98 20 22 C19.34 22 18.68 22 18 22 C17.67 21.34 17.34 20.68 17 20 C16.34 21.32 15.68 22.64 15 24 C12.20171644 23.61402985 11.1794116 23.19863427 9.25 21.0625 C8 19 8 19 8 17 C6.02 16.34 4.04 15.68 2 15 C1.9175 14.05125 1.835 13.1025 1.75 12.125 C1.34925077 8.89538209 1.34925077 8.89538209 -1.0625 7.625 C-1.701875 7.41875 -2.34125 7.2125 -3 7 C-2.690625 6.401875 -2.38125 5.80375 -2.0625 5.1875 C-0.89790296 2.91043228 -0.89790296 2.91043228 0 0 Z " fill="#DB614B" transform="translate(320,108)"/>
<path d="M0 0 C-0.99 0.66 -1.98 1.32 -3 2 C-3.60253342 4.65593753 -3.60253342 4.65593753 -3.6875 7.9375 C-3.72238525 8.57284668 -3.75727051 9.20819336 -3.79321289 9.86279297 C-4.16170834 17.9031975 -4.02229779 25.97050652 -3.87573242 34.01538086 C-3.79131322 41.8629205 -4.58467423 49.28278343 -6 57 C-6.33 57 -6.66 57 -7 57 C-7.02531216 49.36450914 -7.04285088 41.72902905 -7.05493164 34.09350586 C-7.05996681 31.49486893 -7.0667953 28.89623485 -7.07543945 26.29760742 C-7.08754062 22.56688741 -7.09323641 18.83620478 -7.09765625 15.10546875 C-7.10281754 13.93976852 -7.10797882 12.7740683 -7.11329651 11.57304382 C-7.11337204 10.49214981 -7.11344757 9.4112558 -7.11352539 8.29760742 C-7.115746 7.34496506 -7.11796661 6.39232269 -7.12025452 5.41081238 C-7 3 -7 3 -6 0 C-3.50907189 -1.24546405 -2.58919267 -0.7767578 0 0 Z " fill="#C45B4C" transform="translate(205,111)"/>
<path d="M0 0 C0.71294724 0.16076523 1.42589447 0.32153046 2.16044617 0.48716736 C4.97366878 0.9952445 7.57704294 1.1576117 10.43286133 1.20532227 C11.49358353 1.22526749 12.55430573 1.24521271 13.64717102 1.26576233 C14.7806749 1.28247482 15.91417877 1.29918732 17.08203125 1.31640625 C18.25134689 1.33718735 19.42066254 1.35796844 20.62541199 1.37937927 C24.35438253 1.44467414 28.08342247 1.50366659 31.8125 1.5625 C34.34310609 1.60570429 36.8737052 1.64931919 39.40429688 1.69335938 C45.60279158 1.800335 51.80135506 1.90213848 58 2 C57.67 2.66 57.34 3.32 57 4 C38.85 4 20.7 4 2 4 C1.34 2.68 0.68 1.36 0 0 Z " fill="#D4827C" transform="translate(311,172)"/>
<path d="M0 0 C7.48291572 6.15034169 7.48291572 6.15034169 10 10 C9.36191406 10.12117187 8.72382813 10.24234375 8.06640625 10.3671875 C7.24011719 10.53476563 6.41382813 10.70234375 5.5625 10.875 C4.32693359 11.11863281 4.32693359 11.11863281 3.06640625 11.3671875 C2.38449219 11.57601562 1.70257813 11.78484375 1 12 C0.67 12.66 0.34 13.32 0 14 C-0.66 14 -1.32 14 -2 14 C-2 12.68 -2 11.36 -2 10 C-2.99 9.67 -3.98 9.34 -5 9 C-3.84826645 6.53199953 -2.95216435 4.95216435 -1 3 C-0.67 2.01 -0.34 1.02 0 0 Z " fill="#D14A3B" transform="translate(374,158)"/>
<path d="M0 0 C0.66 0 1.32 0 2 0 C2.33 0.66 2.66 1.32 3 2 C4.64363134 2.72159424 6.31050386 3.39351421 8 4 C8 4.66 8 5.32 8 6 C8.86625 6.061875 8.86625 6.061875 9.75 6.125 C13.16998433 7.45499391 14.20251232 9.90088332 16 13 C16.33 13.99 16.66 14.98 17 16 C18.32 16 19.64 16 21 16 C22.8125 17.125 22.8125 17.125 24 19 C23.6875 22.1875 23.6875 22.1875 23 25 C21 24 21 24 20 21 C18.5351307 19.54925785 18.5351307 19.54925785 16.75 18.1875 C13.38682281 15.41903097 10.79160281 12.34992337 8 9 C6.18935394 7.40988135 4.34469972 5.88723043 2.453125 4.39453125 C1 3 1 3 0 0 Z " fill="#D48881" transform="translate(348,149)"/>
<path d="M0 0 C2.86336051 -0.23861338 4.60734493 -0.20193689 7.1875 1.125 C9 3 9 3 9.9375 6.0625 C10.288125 7.031875 10.63875 8.00125 11 9 C13.42383077 10.16953416 13.42383077 10.16953416 16 11 C19 14.31034483 19 14.31034483 19 17 C19.804375 17.226875 20.60875 17.45375 21.4375 17.6875 C22.283125 18.120625 23.12875 18.55375 24 19 C24.8125 21.625 24.8125 21.625 25 24 C23.68 23.34 22.36 22.68 21 22 C21 21.34 21 20.68 21 20 C20.01 19.67 19.02 19.34 18 19 C16.75198033 17.55492459 15.50876285 16.10461682 14.31640625 14.61328125 C10.7207981 10.20679411 6.47469502 6.48031835 2 3 C1.34 3 0.68 3 0 3 C0 2.01 0 1.02 0 0 Z " fill="#E7B7AF" transform="translate(312,114)"/>
<path d="M0 0 C5.62303757 4.67466337 10.79741554 9.67765667 15.9375 14.875 C16.71673828 15.65875 17.49597656 16.4425 18.29882812 17.25 C20.20154085 19.16438581 22.10186171 21.08108034 24 23 C22 24 22 24 19.5625 23.3125 C16.06253568 21.51983535 14.63020567 19.42846619 13.0625 15.875 C11.74149996 13.54382346 10.44629561 12.97851824 8 12 C8 11.34 8 10.68 8 10 C7.01 10 6.02 10 5 10 C2 6.66666667 2 6.66666667 2 4 C1.34 4 0.68 4 0 4 C0 2.68 0 1.36 0 0 Z " fill="#DB9788" transform="translate(320,104)"/>
<path d="M0 0 C3.58326501 -0.05814085 7.16640838 -0.09364357 10.75 -0.125 C11.76578125 -0.14175781 12.7815625 -0.15851563 13.828125 -0.17578125 C14.8078125 -0.18222656 15.7875 -0.18867188 16.796875 -0.1953125 C17.69760742 -0.20578613 18.59833984 -0.21625977 19.52636719 -0.22705078 C22.19812548 0.01818562 23.78171481 0.49932196 26 2 C26.33 2.99 26.66 3.98 27 5 C27.66 5.66 28.32 6.32 29 7 C29.4140625 9.6015625 29.4140625 9.6015625 29.625 12.625 C29.69976562 13.62789062 29.77453125 14.63078125 29.8515625 15.6640625 C29.92503906 16.82035156 29.92503906 16.82035156 30 18 C31.32 18 32.64 18 34 18 C34 18.66 34 19.32 34 20 C35.65 19.67 37.3 19.34 39 19 C38.67 19.66 38.34 20.32 38 21 C34.36024802 20.72001908 31.70696199 20.46510657 28.625 18.4375 C26.73339802 15.60009703 26.5962149 13.32033379 26.33984375 9.96875 C25.80884926 6.89264398 24.15851723 5.15851723 22 3 C19.65061112 1.82530556 18.04926795 1.79965111 15.4296875 1.68359375 C14.53378906 1.64169922 13.63789063 1.59980469 12.71484375 1.55664062 C11.77769531 1.51732422 10.84054687 1.47800781 9.875 1.4375 C8.93011719 1.39431641 7.98523438 1.35113281 7.01171875 1.30664062 C4.67462908 1.20040928 2.3374317 1.09836824 0 1 C0 0.67 0 0.34 0 0 Z " fill="#D27F80" transform="translate(330,203)"/>
<path d="M0 0 C0.99 0.66 1.98 1.32 3 2 C3.36076355 4.13870239 3.36076355 4.13870239 3.34057617 6.81689453 C3.34034958 7.81778107 3.34012299 8.8186676 3.33988953 9.84988403 C3.32440567 10.93325043 3.30892181 12.01661682 3.29296875 13.1328125 C3.28872391 14.23978485 3.28447906 15.3467572 3.28010559 16.48727417 C3.26327214 20.0334271 3.2256108 23.57901797 3.1875 27.125 C3.17245922 29.52473139 3.15876977 31.92447167 3.14648438 34.32421875 C3.11335338 40.21633859 3.06310777 46.10812915 3 52 C2.24871826 51.91693604 1.49743652 51.83387207 0.72338867 51.74829102 C-0.2642749 51.64701904 -1.25193848 51.54574707 -2.26953125 51.44140625 C-3.24768799 51.33771729 -4.22584473 51.23402832 -5.23364258 51.12719727 C-8.53679816 50.97531799 -11.00391917 51.62342232 -14 53 C-13.67 52.01 -13.34 51.02 -13 50 C-9.96826719 48.80506026 -6.97540573 48.89506045 -3.75 48.9375 C-2.85796875 48.94652344 -1.9659375 48.95554688 -1.046875 48.96484375 C-0.37140625 48.97644531 0.3040625 48.98804688 1 49 C1.02532428 42.50383332 1.04285601 36.00767934 1.05493164 29.51147461 C1.059965 27.30085779 1.06679217 25.09024431 1.07543945 22.87963867 C1.08754859 19.704907 1.09323825 16.53021928 1.09765625 13.35546875 C1.10281754 12.36475876 1.10797882 11.37404877 1.11329651 10.35331726 C1.11337204 9.43258926 1.11344757 8.51186127 1.11352539 7.56323242 C1.115746 6.7527092 1.11796661 5.94218597 1.12025452 5.10710144 C1.08120448 2.80751408 1.08120448 2.80751408 0 0 Z " fill="#E5ABA9" transform="translate(384,168)"/>
<path d="M0 0 C1.051875 0.556875 2.10375 1.11375 3.1875 1.6875 C2.8575 3.6675 2.5275 5.6475 2.1875 7.6875 C1.5275 7.6875 0.8675 7.6875 0.1875 7.6875 C-0.4725 8.3475 -1.1325 9.0075 -1.8125 9.6875 C-4.63817672 9.50519828 -5.62002686 8.89372122 -7.5625 6.8125 C-8.8125 4.6875 -8.8125 4.6875 -8.8125 1.6875 C-5.62181949 -1.21311865 -3.8539387 -1.66847346 0 0 Z " fill="#D14239" transform="translate(370.8125,156.3125)"/>
<path d="M0 0 C4.77949439 -0.19117978 8.62325105 -0.03569718 13 2 C15.11706884 4.57730119 15.01280437 5.83674422 14.75 9.1875 C14.5025 10.115625 14.255 11.04375 14 12 C11.04335481 13.4783226 8.25770263 13.06032783 5 13 C5 12.34 5 11.68 5 11 C7.31 11 9.62 11 12 11 C11.69165301 7.98283157 11.69165301 7.98283157 10 5 C7.65510883 4.17623712 5.46145811 3.81537497 2.99609375 3.51953125 C2.00802734 3.26236328 2.00802734 3.26236328 1 3 C0.67 2.01 0.34 1.02 0 0 Z " fill="#8E3C43" transform="translate(269,297)"/>
<path d="M0 0 C0.66 0 1.32 0 2 0 C1.67 1.175625 1.34 2.35125 1 3.5625 C-1.0314422 12.71850021 -0.88337276 22.09815871 2 31 C0.68 30.67 -0.64 30.34 -2 30 C-3.28215986 25.03680053 -3.22048837 20.09075598 -3.25 15 C-3.270625 14.11054688 -3.29125 13.22109375 -3.3125 12.3046875 C-3.34154131 7.44026819 -3.32533083 3.87417184 0 0 Z " fill="#A44B51" transform="translate(265,263)"/>
<path d="M0 0 C0 3.18470342 -0.46025618 6.05023907 -1 9.1875 C-1.185625 10.27417969 -1.37125 11.36085937 -1.5625 12.48046875 C-1.7790625 13.72763672 -1.7790625 13.72763672 -2 15 C-9.75 15.125 -9.75 15.125 -12 14 C-12 13.34 -12 12.68 -12 12 C-12.99 11.67 -13.98 11.34 -15 11 C-12.69 10.01 -10.38 9.02 -8 8 C-8 8.99 -8 9.98 -8 11 C-6.35 11 -4.7 11 -3 11 C-3.33 9.35 -3.66 7.7 -4 6 C-3.34 6 -2.68 6 -2 6 C-1.855625 5.195625 -1.71125 4.39125 -1.5625 3.5625 C-1 1 -1 1 0 0 Z " fill="#BF2027" transform="translate(320,206)"/>
<path d="M0 0 C0.99 0 1.98 0 3 0 C3 0.66 3 1.32 3 2 C3.62648438 2.04898437 4.25296875 2.09796875 4.8984375 2.1484375 C6.12433594 2.26058594 6.12433594 2.26058594 7.375 2.375 C8.59316406 2.47941406 8.59316406 2.47941406 9.8359375 2.5859375 C12 3 12 3 14 5 C14 6.65 14 8.3 14 10 C8.06 10.495 8.06 10.495 2 11 C3.32 10.01 4.64 9.02 6 8 C6 6.68 6 5.36 6 4 C4.68 3.67 3.36 3.34 2 3 C2 2.34 2 1.68 2 1 C1.34 0.67 0.68 0.34 0 0 Z " fill="#991B26" transform="translate(267,298)"/>
<path d="M0 0 C0.33 0 0.66 0 1 0 C1.33 2.64 1.66 5.28 2 8 C3.32 8.33 4.64 8.66 6 9 C5.773125 10.051875 5.54625 11.10375 5.3125 12.1875 C4.96819556 16.38801417 5.51227742 17.7162062 8 21 C7.01 21 6.02 21 5 21 C5 20.34 5 19.68 5 19 C4.38125 18.773125 3.7625 18.54625 3.125 18.3125 C0.2815076 16.55622528 -0.04646273 15.17845755 -1 12 C-0.9765625 8.88671875 -0.9765625 8.88671875 -0.625 5.6875 C-0.51414063 4.61886719 -0.40328125 3.55023438 -0.2890625 2.44921875 C-0.14597656 1.23685547 -0.14597656 1.23685547 0 0 Z " fill="#922F38" transform="translate(199,288)"/>
<path d="M0 0 C16.83 0 33.66 0 51 0 C51.495 1.485 51.495 1.485 52 3 C48.7 2.34 45.4 1.68 42 1 C42 1.66 42 2.32 42 3 C41.34 2.67 40.68 2.34 40 2 C37.01236645 1.84266751 34.04458849 1.74138585 31.0546875 1.68359375 C29.72716965 1.6524221 29.72716965 1.6524221 28.37283325 1.62062073 C25.54030259 1.55513402 22.70767775 1.49624438 19.875 1.4375 C17.95702143 1.39431394 16.03905246 1.35069963 14.12109375 1.30664062 C9.41415949 1.19945353 4.70713033 1.0981836 0 1 C0 0.67 0 0.34 0 0 Z " fill="#D86C56" transform="translate(264,101)"/>
<path d="M0 0 C0.66 0 1.32 0 2 0 C3.6875 1.6875 3.6875 1.6875 5 4 C4.74303831 6.69809776 4.20824654 8.58350693 3 11 C3.27942455 12.67654729 3.60828247 14.34608154 4 16 C3.34 15.67 2.68 15.34 2 15 C1.87625 14.030625 1.7525 13.06125 1.625 12.0625 C1.3508355 8.88417172 1.3508355 8.88417172 -1.0625 7.625 C-1.701875 7.41875 -2.34125 7.2125 -3 7 C-2.690625 6.401875 -2.38125 5.80375 -2.0625 5.1875 C-0.89790296 2.91043228 -0.89790296 2.91043228 0 0 Z " fill="#DD6A53" transform="translate(320,108)"/>
<path d="M0 0 C0.33 0 0.66 0 1 0 C1.08242889 3.37958468 0.9327497 6.40350182 0.375 9.75 C0.25125 10.8225 0.1275 11.895 0 13 C0.66 13.66 1.32 14.32 2 15 C1.625 17.125 1.625 17.125 1 19 C1 18.34 1 17.68 1 17 C-0.65 17 -2.3 17 -4 17 C-4.125 10.25 -4.125 10.25 -3 8 C-3 6.68 -3 5.36 -3 4 C-2.34 3.67 -1.68 3.34 -1 3 C-0.67 2.01 -0.34 1.02 0 0 Z " fill="#B22028" transform="translate(277,229)"/>
<path d="M0 0 C1.15210474 3.45631421 0.80762372 4.63260656 -0.1875 8.0625 C-0.42855469 8.94035156 -0.66960937 9.81820312 -0.91796875 10.72265625 C-2 13 -2 13 -3.96484375 14.28515625 C-6.58905295 15.20690344 -8.22691132 15.39615553 -11 15 C-14.3125 13 -14.3125 13 -17 11 C-13.59598052 9.86267574 -11.22543336 10.16010043 -7.75 10.9375 C-6.85796875 11.13214844 -5.9659375 11.32679688 -5.046875 11.52734375 C-4.37140625 11.68332031 -3.6959375 11.83929688 -3 12 C-3 10.02 -3 8.04 -3 6 C-2.34 6 -1.68 6 -1 6 C-0.67 4.02 -0.34 2.04 0 0 Z " fill="#DD9B9C" transform="translate(321,209)"/>
<path d="M0 0 C1.65 0 3.3 0 5 0 C1.7892562 6.88016529 1.7892562 6.88016529 -1 9 C-3.1875 9.6875 -3.1875 9.6875 -5 10 C-5.33 9.01 -5.66 8.02 -6 7 C-5.34 7 -4.68 7 -4 7 C-4 5.35 -4 3.7 -4 2 C-3.01 2.33 -2.02 2.66 -1 3 C-0.67 2.01 -0.34 1.02 0 0 Z " fill="#B62228" transform="translate(287,216)"/>
<path d="M0 0 C2.31 0 4.62 0 7 0 C7.79560764 2.91499943 8.25322499 5.74561419 8.5625 8.75 C8.64628906 9.54921875 8.73007812 10.3484375 8.81640625 11.171875 C8.87699219 11.77515625 8.93757813 12.3784375 9 13 C8.34 13 7.68 13 7 13 C5.98586097 10.97172193 4.98889887 8.97304011 4.125 6.875 C2.74781064 4.57968441 1.44801496 3.97920598 -1 3 C-0.67 2.01 -0.34 1.02 0 0 Z " fill="#C02329" transform="translate(352,200)"/>
<path d="M0 0 C0 0.99 0 1.98 0 3 C-0.99 3.33 -1.98 3.66 -3 4 C-4.12516085 5.83284443 -4.12516085 5.83284443 -5 8 C-5.37125 8.5775 -5.7425 9.155 -6.125 9.75 C-7.46160487 13.18698395 -7.12238184 16.32854467 -7 20 C-7.99 19.34 -8.98 18.68 -10 18 C-9.40380045 13.13103697 -8.43023178 8.67209049 -7 4 C-6.01 4 -5.02 4 -4 4 C-3.67 3.01 -3.34 2.02 -3 1 C-2.01 0.67 -1.02 0.34 0 0 Z " fill="#C26C70" transform="translate(286,224)"/>
<path d="M0 0 C-1.32 0.33 -2.64 0.66 -4 1 C-4.66 5.62 -5.32 10.24 -6 15 C-8.85689594 10.71465609 -8.34655647 7.03601927 -7.5 2.0625 C-7.335 1.381875 -7.17 0.70125 -7 0 C-3.98968256 -0.93423645 -3.13349732 -1.04449911 0 0 Z " fill="#D36958" transform="translate(316,113)"/>
<path d="M0 0 C0.66 0 1.32 0 2 0 C2.33 3.63 2.66 7.26 3 11 C4.32 11 5.64 11 7 11 C7 11.66 7 12.32 7 13 C8.65 12.67 10.3 12.34 12 12 C11.67 12.66 11.34 13.32 11 14 C7.3780942 13.72139186 4.68350563 13.42061885 1.5625 11.5 C-0.76490154 7.77615754 -0.32910888 4.27841547 0 0 Z " fill="#D38D90" transform="translate(357,210)"/>
<path d="M0 0 C0.82670077 2.31476216 1.11599641 3.61510284 0.3984375 5.99609375 C-1.60400292 8.86551256 -3.69928735 9.2849945 -7 10.3125 C-8.60875 10.83263672 -8.60875 10.83263672 -10.25 11.36328125 C-13 12 -13 12 -15 11 C-14.01 10.67 -13.02 10.34 -12 10 C-12 9.34 -12 8.68 -12 8 C-9.36 7.67 -6.72 7.34 -4 7 C-4 6.34 -4 5.68 -4 5 C-3.34 5 -2.68 5 -2 5 C-1.34 3.35 -0.68 1.7 0 0 Z " fill="#BA7279" transform="translate(283,251)"/>
<path d="M0 0 C7.625 0.875 7.625 0.875 11 2 C4.3315508 5.72192513 4.3315508 5.72192513 0 5 C-0.66 4.01 -1.32 3.02 -2 2 C-1.34 2 -0.68 2 0 2 C0 1.34 0 0.68 0 0 Z " fill="#C41D20" transform="translate(363,215)"/>
<path d="M0 0 C7.48291572 6.15034169 7.48291572 6.15034169 10 10 C6 10 6 10 3.9375 8.0625 C3.298125 7.381875 2.65875 6.70125 2 6 C1.01 5.67 0.02 5.34 -1 5 C-0.67 3.35 -0.34 1.7 0 0 Z " fill="#D4857E" transform="translate(374,158)"/>
<path d="M0 0 C0.66 0.33 1.32 0.66 2 1 C0.88266271 2.50571657 -0.24410035 4.00444292 -1.375 5.5 C-2.00148437 6.3353125 -2.62796875 7.170625 -3.2734375 8.03125 C-3.84320313 8.6809375 -4.41296875 9.330625 -5 10 C-5.66 10 -6.32 10 -7 10 C-7.33 10.99 -7.66 11.98 -8 13 C-7.59709958 7.35939411 -5.78085674 4.96528877 -2 1 C-1.34 0.67 -0.68 0.34 0 0 Z " fill="#DB9E90" transform="translate(206,101)"/>
<path d="M0 0 C2.43816585 -0.0809723 4.87364384 -0.14046972 7.3125 -0.1875 C8.34793945 -0.22520508 8.34793945 -0.22520508 9.40429688 -0.26367188 C14.50537593 -0.33760056 14.50537593 -0.33760056 16.96875 1.34375 C18.38463447 3.61774627 18.21262595 5.37761333 18 8 C14.125 5.375 14.125 5.375 13 2 C8.71 1.67 4.42 1.34 0 1 C0 0.67 0 0.34 0 0 Z " fill="#CE8474" transform="translate(302,100)"/>
<path d="M0 0 C0.33 0 0.66 0 1 0 C1.33 6.93 1.66 13.86 2 21 C0.68 19.35 -0.64 17.7 -2 16 C-1.34 15.67 -0.68 15.34 0 15 C-0.25136719 14.12988281 -0.25136719 14.12988281 -0.5078125 13.2421875 C-1.835278 8.1507692 -2.29125276 4.96438099 0 0 Z " fill="#9B1D24" transform="translate(261,271)"/>
<path d="M0 0 C1.95216435 1.95216435 2.84826645 3.53199953 4 6 C6.64 6 9.28 6 12 6 C11.67 6.99 11.34 7.98 11 9 C9.02 9.33 7.04 9.66 5 10 C5 9.34 5 8.68 5 8 C3.68 8 2.36 8 1 8 C0.67 5.36 0.34 2.72 0 0 Z " fill="#B22A35" transform="translate(359,213)"/>
<path d="M0 0 C2.92325122 -0.24360427 4.62847443 -0.19608294 7.25 1.1875 C9.38918764 3.40308719 9.67372714 4.98197607 10 8 C6.88349604 6.49946106 3.86850702 4.93818042 1 3 C0.67 2.01 0.34 1.02 0 0 Z " fill="#DB998B" transform="translate(312,114)"/>
<path d="M0 0 C1.125 3.75 1.125 3.75 0 6 C-0.9753197 7.02408568 -1.98198643 8.01834406 -3 9 C-3.886875 9.886875 -4.77375 10.77375 -5.6875 11.6875 C-6.450625 12.450625 -7.21375 13.21375 -8 14 C-8.66 13.34 -9.32 12.68 -10 12 C-9.52949219 11.55269531 -9.05898438 11.10539062 -8.57421875 10.64453125 C-5.14923351 7.31882095 -2.21128342 4.29249134 0 0 Z " fill="#B9B9B9" transform="translate(367,293)"/>
<path d="M0 0 C0.33 0 0.66 0 1 0 C1.66 6.27 2.32 12.54 3 19 C2.01 19.66 1.02 20.32 0 21 C0 14.07 0 7.14 0 0 Z " fill="#95262E" transform="translate(198,240)"/>
<path d="M0 0 C0.99386719 0.02707031 1.98773438 0.05414063 3.01171875 0.08203125 C4.15060547 0.13423828 4.15060547 0.13423828 5.3125 0.1875 C2.08458445 2.3394437 1.02849191 2.38836443 -2.6875 2.1875 C-2.6875 2.8475 -2.6875 3.5075 -2.6875 4.1875 C-4.3375 4.5175 -5.9875 4.8475 -7.6875 5.1875 C-8.0175 4.5275 -8.3475 3.8675 -8.6875 3.1875 C-6.10291354 -0.17334451 -4.11082043 -0.14508778 0 0 Z " fill="#A6232D" transform="translate(273.6875,256.8125)"/>
<path d="M0 0 C4 0 4 0 5.8125 1.125 C7 3 7 3 6.6875 6.1875 C6.460625 7.115625 6.23375 8.04375 6 9 C4 8 4 8 3 5 C2.484375 4.484375 1.96875 3.96875 1.4375 3.4375 C0.963125 2.963125 0.48875 2.48875 0 2 C0 1.34 0 0.68 0 0 Z " fill="#D1807A" transform="translate(365,165)"/>
<path d="M0 0 C7.48291572 6.15034169 7.48291572 6.15034169 10 10 C6.43949035 9.69481346 4.99964963 8.99971192 2.1875 6.6875 C0 4 0 4 0 0 Z " fill="#D59187" transform="translate(364,148)"/>
<path d="M0 0 C2.9375 0.75 2.9375 0.75 6 2 C6.6875 4.0625 6.6875 4.0625 7 6 C7.99 6.33 8.98 6.66 10 7 C10.6875 9.0625 10.6875 9.0625 11 11 C6.9855401 9.6618467 5.64233558 7.23686108 3 4 C2.01 3.34 1.02 2.68 0 2 C0 1.34 0 0.68 0 0 Z " fill="#E5B5AE" transform="translate(337,138)"/>
<path d="M0 0 C0.66 0.33 1.32 0.66 2 1 C1.34 3.31 0.68 5.62 0 8 C-1.65 8 -3.3 8 -5 8 C-5 5 -5 5 -2.5 2.3125 C-1.675 1.549375 -0.85 0.78625 0 0 Z " fill="#E36950" transform="translate(207,103)"/>
<path d="M0 0 C4.16138263 -0.08159574 7.9472484 0.01751476 12 1 C11 2.5625 11 2.5625 9 4 C6.23385218 3.96726452 3.73969453 3.49404328 1 3 C0.67 2.01 0.34 1.02 0 0 Z " fill="#9B4550" transform="translate(269,297)"/>
<path d="M0 0 C1.14926266 0.95421808 2.29430541 1.91352045 3.4375 2.875 C4.07558594 3.40867188 4.71367187 3.94234375 5.37109375 4.4921875 C7 6 7 6 8 8 C5.69 7.67 3.38 7.34 1 7 C0.67 4.69 0.34 2.38 0 0 Z " fill="#D99281" transform="translate(344,128)"/>
<path d="M0 0 C4.6875 0.78125 4.6875 0.78125 9.375 1.5625 C10.674375 1.7790625 10.674375 1.7790625 12 2 C10.75 3.5625 10.75 3.5625 9 5 C5.16661877 4.87222063 2.80023004 2.4113092 0 0 Z " fill="#C17073" transform="translate(304,219)"/>
<path d="M0 0 C1.14926266 0.95421808 2.29430541 1.91352045 3.4375 2.875 C4.07558594 3.40867188 4.71367187 3.94234375 5.37109375 4.4921875 C7 6 7 6 8 8 C6.35 8 4.7 8 3 8 C3 7.01 3 6.02 3 5 C2.01 4.67 1.02 4.34 0 4 C0 2.68 0 1.36 0 0 Z " fill="#D68E86" transform="translate(356,140)"/>
<path d="M0 0 C1.14926266 0.95421808 2.29430541 1.91352045 3.4375 2.875 C4.07558594 3.40867187 4.71367187 3.94234375 5.37109375 4.4921875 C7 6 7 6 8 8 C6.35 7.67 4.7 7.34 3 7 C2.67 6.01 2.34 5.02 2 4 C1.34 4 0.68 4 0 4 C0 2.68 0 1.36 0 0 Z " fill="#DCA294" transform="translate(320,104)"/>
<path d="M0 0 C0.99 0.33 1.98 0.66 3 1 C3.5625 2.9375 3.5625 2.9375 4 5 C4.66 5.66 5.32 6.32 6 7 C5.67 7.66 5.34 8.32 5 9 C3.68 9 2.36 9 1 9 C0.67 6.03 0.34 3.06 0 0 Z " fill="#CC5749" transform="translate(361,147)"/>
<path d="M0 0 C0.66 0 1.32 0 2 0 C2.33 0.66 2.66 1.32 3 2 C4.64363134 2.72159424 6.31050386 3.39351421 8 4 C8 5.32 8 6.64 8 8 C3.83648025 6.61216008 2.66077051 4.45181039 0 1 C0 0.67 0 0.34 0 0 Z " fill="#E1AAA4" transform="translate(348,149)"/>
<path d="M0 0 C1.65 0 3.3 0 5 0 C5 0.99 5 1.98 5 3 C4.34 3 3.68 3 3 3 C2.67 3.66 2.34 4.32 2 5 C1.34 5 0.68 5 0 5 C0 3.35 0 1.7 0 0 Z " fill="#D94237" transform="translate(372,167)"/>
<path d="M0 0 C2.5 2.3125 2.5 2.3125 5 5 C5 5.99 5 6.98 5 8 C1.125 6.125 1.125 6.125 0 5 C-0.04063832 3.33382885 -0.042721 1.66611905 0 0 Z " fill="#9C1B2A" transform="translate(203,299)"/>
<path d="M0 0 C1.65 0 3.3 0 5 0 C5 0.99 5 1.98 5 3 C3.02 3.33 1.04 3.66 -1 4 C-0.67 2.68 -0.34 1.36 0 0 Z " fill="#989795" transform="translate(274,268)"/>
<path d="M0 0 C1.485 0.99 1.485 0.99 3 2 C2.67 4.31 2.34 6.62 2 9 C1.34 8.67 0.68 8.34 0 8 C0 5.36 0 2.72 0 0 Z " fill="#9A2630" transform="translate(280,248)"/>
<path d="M0 0 C0.33 1.32 0.66 2.64 1 4 C-0.8125 4.625 -0.8125 4.625 -3 5 C-3.99 4.34 -4.98 3.68 -6 3 C-4.02 2.01 -2.04 1.02 0 0 Z " fill="#CB1B22" transform="translate(311,214)"/>
<path d="M0 0 C2.31 0 4.62 0 7 0 C7.625 1.875 7.625 1.875 8 4 C7.34 4.66 6.68 5.32 6 6 C6 4.68 6 3.36 6 2 C4.35 2.33 2.7 2.66 1 3 C0.67 2.01 0.34 1.02 0 0 Z " fill="#CC2424" transform="translate(352,200)"/>
<path d="M0 0 C2.375 0.6875 2.375 0.6875 5 2 C6.3125 4.625 6.3125 4.625 7 7 C6.01 6.67 5.02 6.34 4 6 C4 5.34 4 4.68 4 4 C2.68 3.34 1.36 2.68 0 2 C0 1.34 0 0.68 0 0 Z " fill="#C28E93" transform="translate(200,303)"/>
<path d="M0 0 C1.60725635 3.21451269 1.05748185 6.43612536 1 10 C0.01 9.34 -0.98 8.68 -2 8 C-1.125 1.125 -1.125 1.125 0 0 Z " fill="#CE8A8E" transform="translate(278,234)"/>
<path d="M0 0 C1.98 0 3.96 0 6 0 C3.11912454 2.40072955 0.43595166 4.47291037 -3 6 C-2.01 4.02 -1.02 2.04 0 0 Z " fill="#DB9B9D" transform="translate(290,218)"/>
<path d="M0 0 C2.4375 0.6875 2.4375 0.6875 5 2 C5.8125 4.625 5.8125 4.625 6 7 C3.00675737 5.9024777 2.15389099 5.32317108 0.75 2.375 C0.5025 1.59125 0.255 0.8075 0 0 Z " fill="#DB9E97" transform="translate(331,131)"/>
<path d="M0 0 C0.66 0 1.32 0 2 0 C2.66 2.31 3.32 4.62 4 7 C2.68 6.67 1.36 6.34 0 6 C0 4.02 0 2.04 0 0 Z " fill="#B37578" transform="translate(263,287)"/>
</svg>
